<svg xmlns="http://www.w3.org/2000/svg" viewBox="0 0 845 849" fill="none" width="300" height="300">
  <defs>
    <filter id="glow" x="-50%" y="-50%" width="200%" height="200%">
      <feGaussianBlur stdDeviation="15" result="blur" />
      <feFlood flood-color="#2F81F7" flood-opacity="0.6" result="color" />
      <feComposite in="color" in2="blur" operator="in" result="shadow" />
      <feMerge>
        <feMergeNode in="shadow" />
        <feMergeNode in="SourceGraphic" />
      </feMerge>
    </filter>
  </defs>

  <g id="blue-link">
    <path d="M469.709 285.167C496.313 294.032 529.026 316.822 552.621 342.935C567.568 359.477 570.334 363.299 581.377 382.668C592.983 403.025 602.912 432.715 605.56 454.997C606.224 460.593 607.296 468.995 607.94 473.673C609.522 485.129 607.57 516.895 604.417 531.073C597.877 560.478 588.441 586.278 577.439 604.843C557.79 637.994 537.652 658.412 444.137 739.983C366.903 807.352 354.156 816.735 320.708 830.836C269.403 852.474 204.476 854.522 152.458 836.153C132.236 829.011 109.782 817.876 98.8941 809.587C95.8714 807.288 93.042 805.387 92.607 805.361C92.169 805.335 85.6201 800.121 78.0551 793.771C37.1011 759.402 9.71291 709.671 1.0081 653.869C-1.16133 639.964 0.397213 592.984 3.52684 577.875C9.64033 548.37 25.0223 514.468 42.9215 491.034C50.1845 481.528 52.0722 479.234 60.2328 470.051C69.2752 459.87 133.656 403.604 139.047 401.167C141.776 399.933 143.471 400.011 145.883 401.475C151.551 404.918 171.303 424.56 188.339 443.688C200.737 457.608 204.841 463.274 204.666 466.229C204.399 470.741 187.235 487.857 154.639 516.112C131.25 536.387 126.178 542.129 113.85 562.315C93.6539 595.375 91.1325 643.504 107.917 675.458C116.818 692.407 121.085 698.618 131.614 709.947C149.511 729.206 168.117 740.632 192.801 747.509C223.853 756.169 252.719 753.917 285.499 740.283C297.571 735.264 302.566 731.618 336.362 703.192C356.975 685.851 394.37 653.389 419.467 631.046C478.663 578.349 491.506 563.47 501.769 535.699C519.37 488.058 510.356 439.449 477.118 402.779C465.369 389.817 456.484 383.436 432.882 371.016C407.526 357.668 399.67 346.96 400.629 327.039C401.083 317.605 401.944 314.791 407.001 306.207C413.896 294.495 420.229 288.756 431.543 283.971C441.6 279.721 454.581 280.129 469.709 285.167Z">
      <animateTransform attributeName="transform" type="translate" 
        values="250 -250; 0 0; 0 0"
        keyTimes="0; 0.2; 1" 
        dur="4s" repeatCount="indefinite" calcMode="spline" keySplines="0.25 0.1 0.25 1; 0 0 0 0" />
      
      <animate attributeName="fill" values="#2F81F7; #2F81F7; #3B8FFE; #2F81F7" keyTimes="0; 0.35; 0.45; 1" dur="4s" repeatCount="indefinite" />
    </path>
  </g>

  <g id="green-link">
    <path d="M375.066 563.457C348.462 554.592 315.749 531.802 292.154 505.689C277.207 489.147 274.441 485.325 263.398 465.956C251.792 445.599 241.862 415.909 239.215 393.627C238.551 388.031 237.478 379.629 236.835 374.951C235.252 363.495 237.204 331.729 240.357 317.551C246.898 288.146 256.334 262.346 267.336 243.781C286.984 210.63 307.123 190.212 400.638 108.641C477.871 41.2723 490.619 31.8887 524.067 17.7877C575.371 -3.85005 640.299 -5.89747 692.317 12.4715C712.539 19.6135 734.992 30.7477 745.881 39.0374C748.903 41.3359 751.733 43.2375 752.168 43.2632C752.606 43.2891 759.155 48.5032 766.72 54.8528C807.674 89.2223 835.062 138.953 843.767 194.755C845.936 208.66 844.378 255.64 841.248 270.749C835.134 300.254 819.753 334.156 801.853 357.59C794.59 367.096 792.703 369.39 784.542 378.573C775.5 388.754 711.119 445.02 705.728 447.457C702.998 448.691 701.304 448.613 698.892 447.149C693.224 443.706 673.472 424.064 656.436 404.937C644.038 391.016 639.934 385.35 640.108 382.395C640.375 377.883 657.54 360.767 690.136 332.512C713.525 312.237 718.597 306.495 730.925 286.309C751.121 253.249 753.642 205.12 736.857 173.166C727.957 156.217 723.69 150.006 713.161 138.677C695.263 119.418 676.658 107.992 651.974 101.115C620.921 92.4553 592.055 94.7066 559.275 108.341C547.204 113.36 542.209 117.006 508.413 145.432C487.8 162.773 450.405 195.235 425.308 217.578C366.112 270.275 353.268 285.154 343.006 312.925C325.405 360.566 334.419 409.175 367.657 445.845C379.406 458.807 388.291 465.188 411.893 477.608C437.248 490.956 445.105 501.665 444.146 521.585C443.691 531.019 442.831 533.833 437.773 542.417C430.879 554.129 424.546 559.868 413.232 564.653C403.175 568.903 390.194 568.495 375.066 563.457Z">
      <animateTransform attributeName="transform" type="translate" 
        values="-250 250; 0 0; 0 0"
        keyTimes="0; 0.2; 1" 
        dur="4s" repeatCount="indefinite" calcMode="spline" keySplines="0.25 0.1 0.25 1; 0 0 0 0" />
      
      <animate attributeName="fill" values="#33BD7F; #33BD7F; #40D68D; #33BD7F" keyTimes="0; 0.35; 0.45; 1" dur="4s" repeatCount="indefinite" />
    </path>
  </g>

  <g>
    <animate attributeName="filter" values="none; url(#glow); none" keyTimes="0; 0.35; 0.6" dur="4s" repeatCount="indefinite" />
    
    <animateTransform attributeName="transform" type="translate"
        values="393.16 558.48; 393.16 558.48; 393.16 258.48; 393.16 258.48"
        keyTimes="0; 0.25; 0.4; 1"
        dur="4s" repeatCount="indefinite" calcMode="spline" keySplines="0 0 1 1; 0.42 0 0.58 1; 0 0 1 1" />
    
    <animate attributeName="opacity" values="0; 0; 1; 1" keyTimes="0; 0.25; 0.4; 1" dur="4s" repeatCount="indefinite" />

    <path d="M31.8291 2.44934C28.0901 3.36366 20.9706 6.96427 19.5675 7.94159C18.1979 8.9924 12.5293 14.7268 10.4291 18.0736C7.75656 22.3323 -0.334978 37.4699 1.1896 55.3933C4.05507 105.796 169.902 472.692 173.895 475.089C176.928 478.568 185.149 485.257 197.903 466.138L225.249 416.196C226.187 414.338 227.178 409.999 232.767 415.047C238.355 420.094 244.552 427.483 250.368 436.145L310.354 525.472C316.17 534.133 322.058 541.061 327.646 546.109C333.234 551.157 335.294 551.275 339.112 550.839C345.887 550.067 370.637 533.749 372.043 532.819C373.388 531.739 396.532 513.088 399.543 506.718C401.241 503.126 401.84 501.067 399.202 493.865C396.564 486.663 392.334 478.525 386.518 469.863L326.532 380.537C320.716 371.875 316.176 363.276 313.539 356.074C310.901 348.872 315.15 349.384 317.146 349.101L371.507 339.388C393.099 333.43 389.882 323.088 387.785 318.926C386.99 314.193 113.065 26.2067 68.6219 6.16035C52.9907 -1.46365 36.5811 1.28729 31.8291 2.44934Z">
        <animate attributeName="fill" values="#2F81F7; #3B8FFE; #2F81F7" keyTimes="0; 0.45; 1" dur="4s" repeatCount="indefinite" />
    </path>
    <path d="M19.5078 7.98408C20.7547 7.0737 28.0336 3.37748 31.8291 2.44934C36.5811 1.28729 52.9907 -1.46365 68.6219 6.16035C113.065 26.2067 386.99 314.193 387.785 318.926C389.882 323.088 393.099 333.43 371.507 339.388L317.146 349.101C315.15 349.384 310.901 348.872 313.539 356.074C316.176 363.276 320.716 371.875 326.532 380.537L386.518 469.863C392.334 478.525 396.564 486.663 399.202 493.865C401.84 501.067 401.241 503.126 399.543 506.718C396.442 513.28 371.982 532.868 371.982 532.868M19.6312 7.89383C18.3843 8.80421 12.5637 14.6721 10.4291 18.0736C7.75656 22.3323 -0.334978 37.4699 1.1896 55.3933C4.05507 105.796 169.902 472.692 173.895 475.089C176.928 478.568 185.149 485.257 197.903 466.138L225.249 416.196C226.187 414.338 227.178 409.999 232.767 415.047C238.355 420.094 244.552 427.483 250.368 436.145L310.354 525.472C316.17 534.133 322.058 541.061 327.646 546.109C333.234 551.157 335.294 551.275 339.112 550.839C346.086 550.045 372.106 532.778 372.106 532.778" stroke-width="2" stroke-linecap="round">
        <animate attributeName="stroke" values="#2F81F7; #3B8FFE; #2F81F7" keyTimes="0; 0.45; 1" dur="4s" repeatCount="indefinite" />
    </path>
  </g>
</svg>