<svg width="846" height="850" viewBox="0 0 846 850" fill="none" xmlns="http://www.w3.org/2000/svg">
<path d="M470.209 285.667C496.813 294.532 529.526 317.322 553.121 343.435C568.068 359.977 570.834 363.799 581.877 383.168C593.483 403.525 603.412 433.215 606.06 455.497C606.724 461.093 607.796 469.495 608.44 474.173C610.022 485.629 608.07 517.394 604.917 531.573C598.377 560.978 588.941 586.778 577.939 605.343C558.29 638.494 538.152 658.912 444.637 740.483C367.403 807.852 354.656 817.235 321.208 831.336C269.903 852.974 204.976 855.021 152.958 836.652C132.736 829.51 110.282 818.376 99.3941 810.087C96.3714 807.788 93.542 805.887 93.107 805.861C92.669 805.835 86.1201 800.621 78.5551 794.271C37.6011 759.902 10.2129 710.171 1.5081 654.369C-0.661327 640.464 0.897213 593.483 4.02684 578.375C10.1403 548.87 25.5223 514.968 43.4215 491.534C50.6845 482.028 52.5722 479.734 60.7328 470.551C69.7752 460.37 134.156 404.104 139.547 401.667C142.276 400.433 143.971 400.511 146.383 401.975C152.051 405.418 171.803 425.06 188.839 444.187C201.237 458.108 205.341 463.774 205.166 466.729C204.899 471.241 187.735 488.357 155.139 516.612C131.75 536.887 126.678 542.628 114.35 562.815C94.1539 595.875 91.6325 644.004 108.417 675.958C117.318 692.907 121.585 699.118 132.114 710.447C150.011 729.706 168.617 741.132 193.301 748.009C224.353 756.669 253.219 754.417 285.999 740.783C298.071 735.764 303.066 732.118 336.862 703.692C357.475 686.351 394.87 653.889 419.967 631.546C479.163 578.849 492.006 563.97 502.269 536.199C519.87 488.558 510.856 439.949 477.618 403.279C465.869 390.317 456.984 383.936 433.382 371.516C408.026 358.168 400.17 347.459 401.129 327.539C401.583 318.105 402.444 315.29 407.501 306.707C414.396 294.995 420.729 289.256 432.043 284.471C442.1 280.221 455.081 280.629 470.209 285.667Z" fill="#2F81F7"/>
<path d="M375.566 563.957C348.962 555.092 316.249 532.302 292.654 506.189C277.707 489.647 274.941 485.825 263.898 466.456C252.292 446.099 242.362 416.409 239.715 394.127C239.051 388.531 237.978 380.129 237.335 375.451C235.752 363.995 237.704 332.229 240.857 318.051C247.398 288.646 256.834 262.846 267.836 244.281C287.484 211.13 307.623 190.712 401.138 109.141C478.371 41.7722 491.119 32.3886 524.567 18.2876C575.871 -3.35014 640.799 -5.39756 692.817 12.9714C713.039 20.1134 735.492 31.2476 746.381 39.5373C749.403 41.8358 752.233 43.7374 752.668 43.7631C753.106 43.789 759.655 49.0031 767.22 55.3527C808.174 89.7222 835.562 139.453 844.267 195.255C846.436 209.16 844.878 256.14 841.748 271.249C835.634 300.754 820.253 334.656 802.353 358.09C795.09 367.596 793.203 369.89 785.042 379.073C776 389.254 711.619 445.519 706.228 447.957C703.498 449.191 701.804 449.113 699.392 447.649C693.724 444.206 673.972 424.564 656.936 405.436C644.538 391.516 640.434 385.85 640.608 382.895C640.875 378.383 658.04 361.267 690.636 333.012C714.025 312.737 719.097 306.995 731.425 286.809C751.621 253.749 754.142 205.62 737.357 173.665C728.457 156.717 724.19 150.506 713.661 139.177C695.763 119.918 677.158 108.492 652.474 101.615C621.421 92.9552 592.555 95.2065 559.775 108.84C547.704 113.86 542.709 117.506 508.913 145.932C488.3 163.273 450.905 195.735 425.808 218.078C366.612 270.775 353.768 285.654 343.506 313.425C325.905 361.066 334.919 409.675 368.157 446.345C379.906 459.307 388.791 465.688 412.393 478.108C437.748 491.456 445.605 502.164 444.646 522.085C444.191 531.519 443.331 534.333 438.273 542.916C431.379 554.629 425.046 560.368 413.732 565.153C403.675 569.403 390.694 568.995 375.566 563.957Z" fill="#33BD7F"/>
<path d="M470.209 285.667C496.813 294.532 529.526 317.322 553.121 343.435C568.068 359.977 570.834 363.799 581.877 383.168C593.483 403.525 603.412 433.215 606.06 455.497C606.724 461.093 607.796 469.495 608.44 474.173C610.022 485.629 608.07 517.394 604.917 531.573C598.377 560.978 588.941 586.778 577.939 605.343C558.29 638.494 538.152 658.912 444.637 740.483C367.403 807.852 354.656 817.235 321.208 831.336C269.903 852.974 204.976 855.021 152.958 836.652C132.736 829.51 110.282 818.376 99.3941 810.087C96.3714 807.788 93.542 805.887 93.107 805.861C92.669 805.835 86.1201 800.621 78.5551 794.271C37.6011 759.902 10.2129 710.171 1.5081 654.369C-0.661327 640.464 0.897213 593.483 4.02684 578.375C10.1403 548.87 25.5223 514.968 43.4215 491.534C50.6845 482.028 52.5722 479.734 60.7328 470.551C69.7752 460.37 134.156 404.104 139.547 401.667C142.276 400.433 143.971 400.511 146.383 401.975C152.051 405.418 171.803 425.06 188.839 444.187C201.237 458.108 205.341 463.774 205.166 466.729C204.899 471.241 187.735 488.357 155.139 516.612C131.75 536.887 126.678 542.628 114.35 562.815C94.1539 595.875 91.6325 644.004 108.417 675.958C117.318 692.907 121.585 699.118 132.114 710.447C150.011 729.706 168.617 741.132 193.301 748.009C224.353 756.669 253.219 754.417 285.999 740.783C298.071 735.764 303.066 732.118 336.862 703.692C357.475 686.351 394.87 653.889 419.967 631.546C479.163 578.849 492.006 563.97 502.269 536.199C519.87 488.558 510.856 439.949 477.618 403.279C465.869 390.317 456.984 383.936 433.382 371.516C408.026 358.168 400.17 347.459 401.129 327.539C401.583 318.105 402.444 315.29 407.501 306.707C414.396 294.995 420.729 289.256 432.043 284.471C442.1 280.221 455.081 280.629 470.209 285.667Z" stroke="#2F81F7" stroke-linejoin="round"/>
<path d="M375.566 563.957C348.962 555.092 316.249 532.302 292.654 506.189C277.707 489.647 274.941 485.825 263.898 466.456C252.292 446.099 242.362 416.409 239.715 394.127C239.051 388.531 237.978 380.129 237.335 375.451C235.752 363.995 237.704 332.229 240.857 318.051C247.398 288.646 256.834 262.846 267.836 244.281C287.484 211.13 307.623 190.712 401.138 109.141C478.371 41.7722 491.119 32.3886 524.567 18.2876C575.871 -3.35014 640.799 -5.39756 692.817 12.9714C713.039 20.1134 735.492 31.2476 746.381 39.5373C749.403 41.8358 752.233 43.7374 752.668 43.7631C753.106 43.789 759.655 49.0031 767.22 55.3527C808.174 89.7222 835.562 139.453 844.267 195.255C846.436 209.16 844.878 256.14 841.748 271.249C835.634 300.754 820.253 334.656 802.353 358.09C795.09 367.596 793.203 369.89 785.042 379.073C776 389.254 711.619 445.519 706.228 447.957C703.498 449.191 701.804 449.113 699.392 447.649C693.724 444.206 673.972 424.564 656.936 405.436C644.538 391.516 640.434 385.85 640.608 382.895C640.875 378.383 658.04 361.267 690.636 333.012C714.025 312.737 719.097 306.995 731.425 286.809C751.621 253.749 754.142 205.62 737.357 173.665C728.457 156.717 724.19 150.506 713.661 139.177C695.763 119.918 677.158 108.492 652.474 101.615C621.421 92.9552 592.555 95.2065 559.775 108.84C547.704 113.86 542.709 117.506 508.913 145.932C488.3 163.273 450.905 195.735 425.808 218.078C366.612 270.775 353.768 285.654 343.506 313.425C325.905 361.066 334.919 409.675 368.157 446.345C379.906 459.307 388.791 465.688 412.393 478.108C437.748 491.456 445.605 502.164 444.646 522.085C444.191 531.519 443.331 534.333 438.273 542.916C431.379 554.629 425.046 560.368 413.732 565.153C403.675 569.403 390.694 568.995 375.566 563.957Z" stroke="#2F81F7" stroke-linejoin="round"/>
<path d="M424.49 260.433C420.751 261.348 413.632 264.948 412.229 265.925C410.859 266.976 405.19 272.711 403.09 276.057C400.418 280.316 392.326 295.454 393.851 313.377C396.716 363.78 562.563 730.676 566.556 733.073C569.59 736.552 577.81 743.241 590.564 724.122L617.91 674.18C618.848 672.321 619.84 667.983 625.428 673.031C631.016 678.078 637.213 685.467 643.029 694.129L703.015 783.456C708.831 792.117 714.719 799.045 720.307 804.093C725.895 809.141 727.955 809.259 731.773 808.823C738.548 808.051 763.298 791.733 764.704 790.803C766.05 789.723 789.193 771.072 792.205 764.702C793.903 761.11 794.501 759.051 791.863 751.849C789.225 744.647 784.996 736.509 779.179 727.847L719.193 638.52C713.377 629.859 708.838 621.26 706.2 614.058C703.562 606.856 707.811 607.368 709.807 607.085L764.168 597.372C785.76 591.414 782.543 581.072 780.446 576.91C779.651 572.177 505.726 284.191 461.283 264.144C445.652 256.52 429.242 259.271 424.49 260.433Z" fill="#2F81F7"/>
<path d="M412.169 265.968C413.416 265.058 420.695 261.361 424.49 260.433C429.242 259.271 445.652 256.52 461.283 264.144C505.726 284.191 779.651 572.177 780.446 576.91C782.543 581.072 785.76 591.414 764.168 597.372L709.807 607.085C707.811 607.368 703.562 606.856 706.2 614.058C708.838 621.26 713.377 629.859 719.193 638.52L779.179 727.847C784.996 736.509 789.225 744.647 791.863 751.849C794.501 759.051 793.903 761.11 792.205 764.702C789.103 771.263 764.643 790.852 764.643 790.852M412.292 265.878C411.045 266.788 405.225 272.656 403.09 276.057C400.418 280.316 392.326 295.454 393.851 313.377C396.716 363.78 562.563 730.676 566.556 733.073C569.59 736.552 577.81 743.241 590.564 724.122L617.91 674.18C618.848 672.321 619.84 667.983 625.428 673.031C631.016 678.078 637.213 685.467 643.029 694.129L703.015 783.456C708.831 792.117 714.719 799.045 720.307 804.093C725.895 809.141 727.955 809.259 731.773 808.823C738.747 808.029 764.767 790.762 764.767 790.762" stroke="#2F81F7" stroke-width="2" stroke-linecap="round"/>
</svg>
